<svg width="18" height="22" viewBox="0 0 18 22" fill="none" xmlns="http://www.w3.org/2000/svg">
<path d="M15 8.5C15 6.9087 14.3679 5.38258 13.2426 4.25736C12.1174 3.13214 10.5913 2.5 9 2.5C7.4087 2.5 5.88258 3.13214 4.75736 4.25736C3.63214 5.38258 3 6.9087 3 8.5V16.5H15V8.5ZM17 17.167L17.4 17.7C17.4557 17.7743 17.4896 17.8626 17.498 17.9551C17.5063 18.0476 17.4887 18.1406 17.4472 18.2236C17.4057 18.3067 17.3419 18.3765 17.2629 18.4253C17.1839 18.4741 17.0929 18.5 17 18.5H1C0.907144 18.5 0.816123 18.4741 0.737135 18.4253C0.658147 18.3765 0.594313 18.3067 0.552787 18.2236C0.51126 18.1406 0.493682 18.0476 0.502021 17.9551C0.51036 17.8626 0.544287 17.7743 0.6 17.7L1 17.167V8.5C1 6.37827 1.84286 4.34344 3.34315 2.84315C4.84344 1.34285 6.87827 0.5 9 0.5C11.1217 0.5 13.1566 1.34285 14.6569 2.84315C16.1571 4.34344 17 6.37827 17 8.5V17.167ZM6.5 19.5H11.5C11.5 20.163 11.2366 20.7989 10.7678 21.2678C10.2989 21.7366 9.66304 22 9 22C8.33696 22 7.70107 21.7366 7.23223 21.2678C6.76339 20.7989 6.5 20.163 6.5 19.5Z" fill="white"/>
</svg>
