<svg width="20" height="15" viewBox="0 0 20 15" fill="none" xmlns="http://www.w3.org/2000/svg">
<path d="M14.25 8.48828C15.4488 9.30204 16.2888 10.4045 16.2888 11.8746V14.4996H19.7888V11.8746C19.7888 9.96704 16.665 8.83828 14.25 8.48828Z" fill="white"/>
<path d="M12.7888 7.50004C14.7225 7.50004 16.2888 5.93378 16.2888 4.00002C16.2888 2.06626 14.7225 0.5 12.7888 0.5C12.3775 0.5 11.9925 0.5875 11.625 0.710001C12.3513 1.61126 12.7888 2.75751 12.7888 4.00002C12.7888 5.24253 12.3513 6.38879 11.625 7.29004C11.9925 7.41254 12.3775 7.50004 12.7888 7.50004Z" fill="white"/>
<path d="M7.53908 7.50004C9.47285 7.50004 11.0391 5.93378 11.0391 4.00002C11.0391 2.06626 9.47285 0.5 7.53908 0.5C5.60532 0.5 4.03906 2.06626 4.03906 4.00002C4.03906 5.93378 5.60532 7.50004 7.53908 7.50004ZM7.53908 2.25001C8.50159 2.25001 9.2891 3.03752 9.2891 4.00002C9.2891 4.96253 8.50159 5.75003 7.53908 5.75003C6.57658 5.75003 5.78907 4.96253 5.78907 4.00002C5.78907 3.03752 6.57658 2.25001 7.53908 2.25001Z" fill="white"/>
<path d="M7.53911 8.375C5.20284 8.375 0.539062 9.54751 0.539062 11.875V14.5H14.5392V11.875C14.5392 9.54751 9.87537 8.375 7.53911 8.375ZM12.7891 12.75H2.28907V11.8838C2.46407 11.2538 5.17659 10.125 7.53911 10.125C9.90162 10.125 12.6141 11.2538 12.7891 11.875V12.75Z" fill="white"/>
</svg>
