<svg width="196" height="45" viewBox="0 0 196 45" fill="none" xmlns="http://www.w3.org/2000/svg">
<path d="M53.992 30.5V13.7H57.208L64.36 25.556H62.656L69.688 13.7H72.88L72.928 30.5H69.28L69.256 19.292H69.928L64.312 28.724H62.56L56.824 19.292H57.64V30.5H53.992ZM82.7939 30.692C81.4179 30.692 80.1939 30.404 79.1219 29.828C78.0659 29.252 77.2259 28.468 76.6019 27.476C75.9939 26.468 75.6899 25.324 75.6899 24.044C75.6899 22.748 75.9939 21.604 76.6019 20.612C77.2259 19.604 78.0659 18.82 79.1219 18.26C80.1939 17.684 81.4179 17.396 82.7939 17.396C84.1539 17.396 85.3699 17.684 86.4419 18.26C87.5139 18.82 88.3539 19.596 88.9619 20.588C89.5699 21.58 89.8739 22.732 89.8739 24.044C89.8739 25.324 89.5699 26.468 88.9619 27.476C88.3539 28.468 87.5139 29.252 86.4419 29.828C85.3699 30.404 84.1539 30.692 82.7939 30.692ZM82.7939 27.62C83.4179 27.62 83.9779 27.476 84.4739 27.188C84.9699 26.9 85.3619 26.492 85.6499 25.964C85.9379 25.42 86.0819 24.78 86.0819 24.044C86.0819 23.292 85.9379 22.652 85.6499 22.124C85.3619 21.596 84.9699 21.188 84.4739 20.9C83.9779 20.612 83.4179 20.468 82.7939 20.468C82.1699 20.468 81.6099 20.612 81.1139 20.9C80.6179 21.188 80.2179 21.596 79.9139 22.124C79.6259 22.652 79.4819 23.292 79.4819 24.044C79.4819 24.78 79.6259 25.42 79.9139 25.964C80.2179 26.492 80.6179 26.9 81.1139 27.188C81.6099 27.476 82.1699 27.62 82.7939 27.62ZM95.5289 30.5L90.1049 17.588H93.9689L98.4809 28.7H96.5609L101.241 17.588H104.841L99.3929 30.5H95.5289ZM106.369 30.5V17.588H110.113V30.5H106.369ZM108.241 15.788C107.553 15.788 106.993 15.588 106.561 15.188C106.129 14.788 105.913 14.292 105.913 13.7C105.913 13.108 106.129 12.612 106.561 12.212C106.993 11.812 107.553 11.612 108.241 11.612C108.929 11.612 109.489 11.804 109.921 12.188C110.353 12.556 110.569 13.036 110.569 13.628C110.569 14.252 110.353 14.772 109.921 15.188C109.505 15.588 108.945 15.788 108.241 15.788ZM119.995 30.692C118.523 30.692 117.227 30.404 116.107 29.828C115.003 29.252 114.147 28.468 113.539 27.476C112.931 26.468 112.627 25.324 112.627 24.044C112.627 22.748 112.923 21.604 113.515 20.612C114.123 19.604 114.947 18.82 115.987 18.26C117.027 17.684 118.203 17.396 119.515 17.396C120.779 17.396 121.915 17.668 122.923 18.212C123.947 18.74 124.755 19.508 125.347 20.516C125.939 21.508 126.235 22.7 126.235 24.092C126.235 24.236 126.227 24.404 126.211 24.596C126.195 24.772 126.179 24.94 126.163 25.1H115.675V22.916H124.195L122.755 23.564C122.755 22.892 122.619 22.308 122.347 21.812C122.075 21.316 121.699 20.932 121.219 20.66C120.739 20.372 120.179 20.228 119.539 20.228C118.899 20.228 118.331 20.372 117.835 20.66C117.355 20.932 116.979 21.324 116.707 21.836C116.435 22.332 116.299 22.924 116.299 23.612V24.188C116.299 24.892 116.451 25.516 116.755 26.06C117.075 26.588 117.515 26.996 118.075 27.284C118.651 27.556 119.323 27.692 120.091 27.692C120.779 27.692 121.379 27.588 121.891 27.38C122.419 27.172 122.899 26.86 123.331 26.444L125.323 28.604C124.731 29.276 123.987 29.796 123.091 30.164C122.195 30.516 121.163 30.692 119.995 30.692ZM134.368 30.644C133.12 30.644 131.92 30.444 130.768 30.044C129.632 29.628 128.752 29.1 128.128 28.46L128.824 27.092C129.416 27.668 130.208 28.156 131.2 28.556C132.208 28.94 133.264 29.132 134.368 29.132C135.424 29.132 136.28 29.004 136.936 28.748C137.608 28.476 138.096 28.116 138.4 27.668C138.72 27.22 138.88 26.724 138.88 26.18C138.88 25.524 138.688 24.996 138.304 24.596C137.936 24.196 137.448 23.884 136.84 23.66C136.232 23.42 135.56 23.212 134.824 23.036C134.088 22.86 133.352 22.676 132.616 22.484C131.88 22.276 131.2 22.004 130.576 21.668C129.968 21.332 129.472 20.892 129.088 20.348C128.72 19.788 128.536 19.06 128.536 18.164C128.536 17.332 128.752 16.572 129.184 15.884C129.632 15.18 130.312 14.62 131.224 14.204C132.136 13.772 133.304 13.556 134.728 13.556C135.672 13.556 136.608 13.692 137.536 13.964C138.464 14.22 139.264 14.58 139.936 15.044L139.336 16.46C138.616 15.98 137.848 15.628 137.032 15.404C136.232 15.18 135.456 15.068 134.704 15.068C133.696 15.068 132.864 15.204 132.208 15.476C131.552 15.748 131.064 16.116 130.744 16.58C130.44 17.028 130.288 17.54 130.288 18.116C130.288 18.772 130.472 19.3 130.84 19.7C131.224 20.1 131.72 20.412 132.328 20.636C132.952 20.86 133.632 21.06 134.368 21.236C135.104 21.412 135.832 21.604 136.552 21.812C137.288 22.02 137.96 22.292 138.568 22.628C139.192 22.948 139.688 23.38 140.056 23.924C140.44 24.468 140.632 25.18 140.632 26.06C140.632 26.876 140.408 27.636 139.96 28.34C139.512 29.028 138.824 29.588 137.896 30.02C136.984 30.436 135.808 30.644 134.368 30.644ZM150.574 17.78C151.598 17.78 152.494 17.98 153.262 18.38C154.046 18.764 154.654 19.356 155.086 20.156C155.534 20.956 155.758 21.964 155.758 23.18V30.5H154.054V23.348C154.054 22.02 153.718 21.02 153.046 20.348C152.39 19.66 151.462 19.316 150.262 19.316C149.366 19.316 148.582 19.5 147.91 19.868C147.254 20.22 146.742 20.74 146.374 21.428C146.022 22.1 145.846 22.916 145.846 23.876V30.5H144.142V12.692H145.846V21.356L145.51 20.708C145.91 19.796 146.55 19.084 147.43 18.572C148.31 18.044 149.358 17.78 150.574 17.78ZM168.256 30.5V27.716L168.184 27.26V22.604C168.184 21.532 167.88 20.708 167.272 20.132C166.68 19.556 165.792 19.268 164.608 19.268C163.792 19.268 163.016 19.404 162.28 19.676C161.544 19.948 160.92 20.308 160.408 20.756L159.64 19.484C160.28 18.94 161.048 18.524 161.944 18.236C162.84 17.932 163.784 17.78 164.776 17.78C166.408 17.78 167.664 18.188 168.544 19.004C169.44 19.804 169.888 21.028 169.888 22.676V30.5H168.256ZM163.912 30.62C162.968 30.62 162.144 30.468 161.44 30.164C160.752 29.844 160.224 29.412 159.856 28.868C159.488 28.308 159.304 27.668 159.304 26.948C159.304 26.292 159.456 25.7 159.76 25.172C160.08 24.628 160.592 24.196 161.296 23.876C162.016 23.54 162.976 23.372 164.176 23.372H168.52V24.644H164.224C163.008 24.644 162.16 24.86 161.68 25.292C161.216 25.724 160.984 26.26 160.984 26.9C160.984 27.62 161.264 28.196 161.824 28.628C162.384 29.06 163.168 29.276 164.176 29.276C165.136 29.276 165.96 29.06 166.648 28.628C167.352 28.18 167.864 27.54 168.184 26.708L168.568 27.884C168.248 28.716 167.688 29.38 166.888 29.876C166.104 30.372 165.112 30.62 163.912 30.62ZM174.517 30.5V17.9H176.149V21.332L175.981 20.732C176.333 19.772 176.925 19.044 177.757 18.548C178.589 18.036 179.621 17.78 180.853 17.78V19.436C180.789 19.436 180.725 19.436 180.661 19.436C180.597 19.42 180.533 19.412 180.469 19.412C179.141 19.412 178.101 19.82 177.349 20.636C176.597 21.436 176.221 22.58 176.221 24.068V30.5H174.517ZM189.197 30.62C187.885 30.62 186.733 30.348 185.741 29.804C184.749 29.244 183.973 28.484 183.413 27.524C182.853 26.548 182.573 25.436 182.573 24.188C182.573 22.94 182.837 21.836 183.365 20.876C183.909 19.916 184.645 19.164 185.573 18.62C186.517 18.06 187.573 17.78 188.741 17.78C189.925 17.78 190.973 18.052 191.885 18.596C192.813 19.124 193.541 19.876 194.069 20.852C194.597 21.812 194.861 22.924 194.861 24.188C194.861 24.268 194.853 24.356 194.837 24.452C194.837 24.532 194.837 24.62 194.837 24.716H183.869V23.444H193.925L193.253 23.948C193.253 23.036 193.053 22.228 192.653 21.524C192.269 20.804 191.741 20.244 191.069 19.844C190.397 19.444 189.621 19.244 188.741 19.244C187.877 19.244 187.101 19.444 186.413 19.844C185.725 20.244 185.189 20.804 184.805 21.524C184.421 22.244 184.229 23.068 184.229 23.996V24.26C184.229 25.22 184.437 26.068 184.853 26.804C185.285 27.524 185.877 28.092 186.629 28.508C187.397 28.908 188.269 29.108 189.245 29.108C190.013 29.108 190.725 28.972 191.381 28.7C192.053 28.428 192.629 28.012 193.109 27.452L194.069 28.556C193.509 29.228 192.805 29.74 191.957 30.092C191.125 30.444 190.205 30.62 189.197 30.62Z" fill="#E3E3E3"/>
<path d="M38.884 35.2902V19.9414H34.791V35.2902C34.791 40.4065 38.884 44.4995 44.0003 44.4995V40.4065C41.1352 40.4065 38.884 38.1554 38.884 35.2902Z" fill="#742EA6"/>
<path d="M19.4419 39.3837C30.1793 39.3837 38.8837 30.6793 38.8837 19.9419C38.8837 9.20442 30.1793 0.5 19.4419 0.5C8.70442 0.5 0 9.20442 0 19.9419C0 30.6793 8.70442 39.3837 19.4419 39.3837Z" fill="#742EA6"/>
<path d="M19.441 21.9876C20.5713 21.9876 21.4876 21.0713 21.4876 19.941C21.4876 18.8108 20.5713 17.8945 19.441 17.8945C18.3108 17.8945 17.3945 18.8108 17.3945 19.941C17.3945 21.0713 18.3108 21.9876 19.441 21.9876Z" fill="#151A23"/>
<path d="M19.4425 14.8263C22.2681 14.8263 24.5587 12.5357 24.5587 9.71003C24.5587 6.88439 22.2681 4.59375 19.4425 4.59375C16.6168 4.59375 14.3262 6.88439 14.3262 9.71003C14.3262 12.5357 16.6168 14.8263 19.4425 14.8263Z" fill="#151A23"/>
<path d="M19.4425 35.2912C22.2681 35.2912 24.5587 33.0005 24.5587 30.1749C24.5587 27.3492 22.2681 25.0586 19.4425 25.0586C16.6168 25.0586 14.3262 27.3492 14.3262 30.1749C14.3262 33.0005 16.6168 35.2912 19.4425 35.2912Z" fill="#151A23"/>
<path d="M29.6749 25.0607C32.5005 25.0607 34.7912 22.77 34.7912 19.9444C34.7912 17.1188 32.5005 14.8281 29.6749 14.8281C26.8492 14.8281 24.5586 17.1188 24.5586 19.9444C24.5586 22.77 26.8492 25.0607 29.6749 25.0607Z" fill="#151A23"/>
<path d="M9.21003 25.0607C12.0357 25.0607 14.3263 22.77 14.3263 19.9444C14.3263 17.1188 12.0357 14.8281 9.21003 14.8281C6.38439 14.8281 4.09375 17.1188 4.09375 19.9444C4.09375 22.77 6.38439 25.0607 9.21003 25.0607Z" fill="#151A23"/>
</svg>
