<svg width="24" height="24" viewBox="0 0 24 24" fill="none" xmlns="http://www.w3.org/2000/svg">
<path d="M23.3753 12.2513C23.3753 11.316 23.2978 10.6335 23.1302 9.92578H12.2324V14.1471H18.6292C18.5003 15.1962 17.8038 16.776 16.2562 17.8377L16.2345 17.979L19.6802 20.5949L19.9189 20.6183C22.1113 18.634 23.3753 15.7144 23.3753 12.2513Z" fill="#4285F4"/>
<path d="M12.2323 23.3754C15.3662 23.3754 17.9971 22.3642 19.9188 20.6201L16.2561 17.8394C15.2759 18.5093 13.9604 18.9769 12.2323 18.9769C9.1629 18.9769 6.55778 16.9927 5.62912 14.25L5.493 14.2613L1.91014 16.9787L1.86328 17.1064C3.77198 20.8222 7.69261 23.3754 12.2323 23.3754Z" fill="#34A853"/>
<path d="M5.63087 14.2511C5.38583 13.5433 5.24402 12.7849 5.24402 12.0013C5.24402 11.2177 5.38583 10.4594 5.61797 9.7516L5.61148 9.60086L1.98371 6.83984L1.86502 6.89517C1.07835 8.43714 0.626953 10.1687 0.626953 12.0013C0.626953 13.834 1.07835 15.5654 1.86502 17.1074L5.63087 14.2511Z" fill="#FBBC05"/>
<path d="M12.2324 5.0233C14.4119 5.0233 15.8821 5.94594 16.7204 6.71696L19.9962 3.5825C17.9844 1.74987 15.3663 0.625 12.2324 0.625C7.69265 0.625 3.77199 3.17804 1.86328 6.89384L5.61625 9.75027C6.5578 7.00763 9.16295 5.0233 12.2324 5.0233Z" fill="#685CF0"/>
</svg>
