<svg width="20" height="19" viewBox="0 0 20 19" fill="none" xmlns="http://www.w3.org/2000/svg">
<path d="M1.34126e-06 6.49401C-0.000525832 5.70621 0.154353 4.92605 0.455768 4.19819C0.757183 3.47034 1.19921 2.80909 1.75655 2.25231C2.31388 1.69553 2.97558 1.25416 3.70373 0.953478C4.43189 0.652791 5.21221 0.498693 6 0.500008H14C17.313 0.500008 20 3.19501 20 6.49401V18.5H6C2.687 18.5 1.34126e-06 15.805 1.34126e-06 12.506V6.49401ZM18 16.5V6.49401C17.9974 5.43451 17.5749 4.41925 16.8251 3.67063C16.0754 2.92201 15.0595 2.50106 14 2.50001H6C5.47485 2.49869 4.9546 2.60106 4.4691 2.80123C3.98359 3.00141 3.54238 3.29546 3.17076 3.66652C2.79914 4.03758 2.50443 4.47835 2.30353 4.96356C2.10262 5.44876 1.99947 5.96886 2 6.49401V12.506C2.00265 13.5655 2.42511 14.5808 3.17486 15.3294C3.9246 16.078 4.9405 16.499 6 16.5H18ZM12 8.50001H14V10.5H12V8.50001ZM6 8.50001H8V10.5H6V8.50001Z" fill="white"/>
</svg>
