<svg width="21" height="21" viewBox="0 0 21 21" fill="none" xmlns="http://www.w3.org/2000/svg">
<path d="M18.1738 16.2182V9.35547H16.3438V16.2182C16.3438 18.5057 18.1738 20.3358 20.4614 20.3358V18.5057C19.1803 18.5057 18.1738 17.4992 18.1738 16.2182Z" fill="white"/>
<path d="M9.4818 18.0495C14.2827 18.0495 18.1745 14.1577 18.1745 9.3568C18.1745 4.55593 14.2827 0.664062 9.4818 0.664062C4.68093 0.664062 0.789062 4.55593 0.789062 9.3568C0.789062 14.1577 4.68093 18.0495 9.4818 18.0495Z" fill="white"/>
<path d="M9.48143 10.2715C9.98678 10.2715 10.3965 9.86178 10.3965 9.35643C10.3965 8.85108 9.98678 8.44141 9.48143 8.44141C8.97608 8.44141 8.56641 8.85108 8.56641 9.35643C8.56641 9.86178 8.97608 10.2715 9.48143 10.2715Z" fill="#4B3F72"/>
<path d="M9.48092 7.06731C10.7443 7.06731 11.7685 6.04313 11.7685 4.77975C11.7685 3.51636 10.7443 2.49219 9.48092 2.49219C8.21754 2.49219 7.19336 3.51636 7.19336 4.77975C7.19336 6.04313 8.21754 7.06731 9.48092 7.06731Z" fill="#4B3F72"/>
<path d="M9.48092 16.2157C10.7443 16.2157 11.7685 15.1916 11.7685 13.9282C11.7685 12.6648 10.7443 11.6406 9.48092 11.6406C8.21754 11.6406 7.19336 12.6648 7.19336 13.9282C7.19336 15.1916 8.21754 16.2157 9.48092 16.2157Z" fill="#4B3F72"/>
<path d="M14.0571 11.6415C15.3205 11.6415 16.3447 10.6174 16.3447 9.35397C16.3447 8.09058 15.3205 7.06641 14.0571 7.06641C12.7937 7.06641 11.7695 8.09058 11.7695 9.35397C11.7695 10.6174 12.7937 11.6415 14.0571 11.6415Z" fill="#4B3F72"/>
<path d="M4.9067 11.6415C6.17009 11.6415 7.19426 10.6174 7.19426 9.35397C7.19426 8.09058 6.17009 7.06641 4.9067 7.06641C3.64332 7.06641 2.61914 8.09058 2.61914 9.35397C2.61914 10.6174 3.64332 11.6415 4.9067 11.6415Z" fill="#4B3F72"/>
</svg>
