<svg width="20" height="20" viewBox="0 0 20 20" fill="none" xmlns="http://www.w3.org/2000/svg">
<path d="M17.3847 15.5541V8.69141H15.5547V15.5541C15.5547 17.8417 17.3847 19.6717 19.6723 19.6717V17.8417C18.3913 17.8417 17.3847 16.8351 17.3847 15.5541Z" fill="white"/>
<path d="M8.69273 17.3855C13.4936 17.3855 17.3855 13.4936 17.3855 8.69273C17.3855 3.89187 13.4936 0 8.69273 0C3.89187 0 0 3.89187 0 8.69273C0 13.4936 3.89187 17.3855 8.69273 17.3855Z" fill="white"/>
<path d="M8.69237 9.60739C9.19772 9.60739 9.60739 9.19772 9.60739 8.69237C9.60739 8.18701 9.19772 7.77734 8.69237 7.77734C8.18701 7.77734 7.77734 8.18701 7.77734 8.69237C7.77734 9.19772 8.18701 9.60739 8.69237 9.60739Z" fill="#231B32"/>
<path d="M8.69186 6.40325C9.95524 6.40325 10.9794 5.37907 10.9794 4.11569C10.9794 2.8523 9.95524 1.82812 8.69186 1.82812C7.42847 1.82812 6.4043 2.8523 6.4043 4.11569C6.4043 5.37907 7.42847 6.40325 8.69186 6.40325Z" fill="#231B32"/>
<path d="M8.69186 15.5517C9.95524 15.5517 10.9794 14.5275 10.9794 13.2641C10.9794 12.0007 9.95524 10.9766 8.69186 10.9766C7.42847 10.9766 6.4043 12.0007 6.4043 13.2641C6.4043 14.5275 7.42847 15.5517 8.69186 15.5517Z" fill="#231B32"/>
<path d="M13.268 10.9775C14.5314 10.9775 15.5556 9.95329 15.5556 8.68991C15.5556 7.42652 14.5314 6.40234 13.268 6.40234C12.0046 6.40234 10.9805 7.42652 10.9805 8.68991C10.9805 9.95329 12.0046 10.9775 13.268 10.9775Z" fill="#231B32"/>
<path d="M4.11764 10.9775C5.38102 10.9775 6.4052 9.95329 6.4052 8.68991C6.4052 7.42652 5.38102 6.40234 4.11764 6.40234C2.85425 6.40234 1.83008 7.42652 1.83008 8.68991C1.83008 9.95329 2.85425 10.9775 4.11764 10.9775Z" fill="#231B32"/>
</svg>
