<svg width="14" height="15" viewBox="0 0 14 15" fill="none" xmlns="http://www.w3.org/2000/svg">
<path d="M6.99923 14.2423C6.64149 14.2423 6.29841 14.1002 6.04546 13.8472C5.7925 13.5943 5.65039 13.2512 5.65039 12.8934V2.10274C5.65039 1.74501 5.7925 1.40193 6.04546 1.14897C6.29841 0.896016 6.64149 0.753906 6.99923 0.753906C7.35696 0.753906 7.70004 0.896016 7.953 1.14897C8.20596 1.40193 8.34806 1.74501 8.34806 2.10274V12.8934C8.34806 13.2512 8.20596 13.5943 7.953 13.8472C7.70004 14.1002 7.35696 14.2423 6.99923 14.2423Z" fill="#EAE4CC"/>
<path d="M1.6047 8.84611C1.24696 8.84611 0.903881 8.704 0.650925 8.45105C0.397969 8.19809 0.255859 7.85501 0.255859 7.49727C0.255859 7.13954 0.397969 6.79646 0.650925 6.5435C0.903881 6.29055 1.24696 6.14844 1.6047 6.14844H12.3954C12.7531 6.14844 13.0962 6.29055 13.3492 6.5435C13.6021 6.79646 13.7442 7.13954 13.7442 7.49727C13.7442 7.85501 13.6021 8.19809 13.3492 8.45105C13.0962 8.704 12.7531 8.84611 12.3954 8.84611H1.6047Z" fill="#EAE4CC"/>
</svg>
