<svg width="20" height="20" viewBox="0 0 20 20" fill="none" xmlns="http://www.w3.org/2000/svg">
<path d="M19.0587 9.28061C19.278 9.11725 19.4407 8.88935 19.5239 8.62888C19.6071 8.3684 19.6068 8.08841 19.5228 7.82816C19.4389 7.56791 19.2756 7.34045 19.0559 7.17768C18.8362 7.01491 18.571 6.92499 18.2976 6.92052L12.9874 6.71992C12.9613 6.71811 12.9363 6.7088 12.9153 6.6931C12.8944 6.67739 12.8784 6.65597 12.8694 6.63141L11.0344 1.67523C10.9422 1.42308 10.7748 1.20535 10.5547 1.05152C10.3347 0.897686 10.0727 0.815186 9.80424 0.815186C9.53576 0.815186 9.27376 0.897686 9.05373 1.05152C8.83369 1.20535 8.66624 1.42308 8.57404 1.67523L6.74498 6.64911C6.73593 6.67367 6.71999 6.6951 6.69905 6.7108C6.67811 6.7265 6.65308 6.73581 6.62697 6.73762L1.31678 6.93822C1.04337 6.94269 0.778206 7.03261 0.558479 7.19538C0.338752 7.35815 0.175476 7.58561 0.0915453 7.84586C0.00761466 8.10611 0.0072381 8.3861 0.0904684 8.64658C0.173699 8.90705 0.336362 9.13495 0.555651 9.29831L4.7212 12.5729C4.74205 12.5893 4.75763 12.6115 4.76602 12.6367C4.77441 12.6618 4.77524 12.6889 4.7684 12.7145L3.33465 17.7946C3.26035 18.0533 3.26755 18.3286 3.35527 18.5831C3.44298 18.8375 3.60695 19.0588 3.82487 19.2167C4.04279 19.3747 4.30408 19.4617 4.5732 19.4659C4.84231 19.4701 5.10619 19.3913 5.32892 19.2402L9.73048 16.2901C9.75217 16.2751 9.77789 16.2671 9.80424 16.2671C9.83059 16.2671 9.85631 16.2751 9.87799 16.2901L14.2796 19.2402C14.4993 19.3964 14.7622 19.4804 15.0318 19.4804C15.3014 19.4804 15.5644 19.3964 15.7841 19.2402C16.0021 19.0837 16.1662 18.8635 16.2539 18.6099C16.3416 18.3564 16.3486 18.0818 16.2738 17.8241L14.8283 12.7263C14.8206 12.7007 14.821 12.6734 14.8295 12.6481C14.8379 12.6227 14.854 12.6006 14.8755 12.5847L19.0587 9.28061Z" fill="#F6C700"/>
</svg>
