<svg width="19" height="13" viewBox="0 0 19 13" fill="none" xmlns="http://www.w3.org/2000/svg">
<path d="M16.9884 0.5H3.21346C2.78048 0.5 2.77987 1.17216 3.21346 1.17216H16.9884C17.1743 1.17216 17.3256 1.32293 17.3256 1.50824V9.45043C17.3256 9.63574 17.1743 9.78651 16.9884 9.78651H11.084C10.9808 9.78651 10.8832 9.83359 10.8193 9.91435L9.45908 11.6318L8.01644 9.90736C7.95237 9.8308 7.85748 9.78651 7.75743 9.78651H2.01164C1.8257 9.78651 1.67443 9.63574 1.67443 9.45043V1.50824C1.67443 1.32293 1.8257 1.17216 2.01164 1.17216H3.29481C3.72779 1.17216 3.7284 0.5 3.29481 0.5H2.01164C1.45382 0.5 1 0.952297 1 1.50824V9.45043C1 10.0064 1.45382 10.4587 2.01164 10.4587H7.59958L9.20728 12.3804C9.34304 12.5427 9.59956 12.5393 9.73098 12.3734L11.2474 10.4587H16.9884C17.5462 10.4587 18 10.0064 18 9.45043V1.50824C18 0.952297 17.5462 0.5 16.9884 0.5Z" fill="white" stroke="#F5F1E5" stroke-width="0.6"/>
<path d="M3.86808 4.82306C3.83237 4.93255 3.8554 5.05263 3.92911 5.14129L4.5857 5.93132L4.52045 6.95515C4.4692 7.75721 5.67743 6.90545 5.9381 6.91062C6.20103 6.91586 7.40643 7.74813 7.35575 6.95515L7.29046 5.93132L7.94709 5.14129C8.10045 4.95682 8.00536 4.6611 7.77103 4.60135L6.77392 4.34686L6.22291 3.48038C6.09426 3.27799 5.78271 3.27675 5.65326 3.48038L5.10225 4.34686L4.10514 4.60135C3.99322 4.62988 3.90379 4.71353 3.86808 4.82306ZM5.39913 4.96488C5.64843 4.9013 5.81252 4.48546 5.93807 4.28802C6.06159 4.48227 6.23009 4.9019 6.477 4.96488L7.08824 5.12089L6.6857 5.60518C6.63091 5.67112 6.60342 5.75545 6.60889 5.84088L6.64891 6.46851L6.0624 6.23664C5.98251 6.20509 5.89359 6.20509 5.8137 6.23664L5.22719 6.46851L5.26718 5.84088C5.27264 5.75545 5.24516 5.67112 5.19036 5.60518L4.78786 5.12089L5.39913 4.96488Z" fill="white"/>
<path d="M14.5364 4.82309C14.5007 4.7136 14.4113 4.62991 14.2993 4.60135L13.3022 4.34687L12.7512 3.48038C12.6226 3.27799 12.311 3.27675 12.1816 3.48038L11.6306 4.34687L10.6334 4.60135C10.5215 4.62991 10.4321 4.7136 10.3964 4.82309C10.3607 4.93259 10.3837 5.05267 10.4574 5.14133L11.114 5.93135L11.0488 6.95518C10.9975 7.75721 12.2058 6.90548 12.4664 6.91066C12.7293 6.9159 13.9347 7.74817 13.8841 6.95518L13.8188 5.93135L14.4754 5.14133C14.5491 5.05267 14.5721 4.93259 14.5364 4.82309ZM13.214 5.60522C13.1592 5.67116 13.1318 5.75548 13.1372 5.84091L13.1773 6.46854C12.9667 6.38529 12.6978 6.21299 12.4664 6.21299C12.2361 6.21299 11.9656 6.3855 11.7556 6.46854L11.7956 5.84091C11.801 5.75548 11.7736 5.67116 11.7188 5.60522L11.3162 5.12093L11.9275 4.96492C12.1768 4.90133 12.3409 4.4855 12.4664 4.28805C12.5899 4.48231 12.7584 4.90194 13.0053 4.96492L13.6166 5.12093L13.214 5.60522Z" fill="white"/>
</svg>
