<svg width="33" height="32" viewBox="0 0 33 32" fill="none" xmlns="http://www.w3.org/2000/svg">
<path d="M16.9309 0C21.1928 0 25.2802 1.68571 28.2938 4.68629C31.3074 7.68687 33.0005 11.7565 33.0005 16C33.0005 20.2435 31.3074 24.3131 28.2938 27.3137C25.2802 30.3143 21.1928 32 16.9309 32C12.669 32 8.58162 30.3143 5.56799 27.3137C2.55437 24.3131 0.861328 20.2435 0.861328 16C0.861328 11.7565 2.55437 7.68687 5.56799 4.68629C8.58162 1.68571 12.669 0 16.9309 0ZM9.90046 15C9.63409 15 9.37863 15.1054 9.19028 15.2929C9.00193 15.4804 8.89611 15.7348 8.89611 16C8.89611 16.2652 9.00193 16.5196 9.19028 16.7071C9.37863 16.8946 9.63409 17 9.90046 17H21.5368L17.2242 21.292C17.0356 21.4798 16.9296 21.7344 16.9296 22C16.9296 22.2656 17.0356 22.5202 17.2242 22.708C17.4128 22.8958 17.6685 23.0013 17.9352 23.0013C18.2019 23.0013 18.4577 22.8958 18.6463 22.708L24.6724 16.708C24.7659 16.6151 24.8401 16.5048 24.8908 16.3833C24.9414 16.2618 24.9675 16.1315 24.9675 16C24.9675 15.8685 24.9414 15.7382 24.8908 15.6167C24.8401 15.4952 24.7659 15.3849 24.6724 15.292L18.6463 9.292C18.4577 9.10423 18.2019 8.99874 17.9352 8.99874C17.6685 8.99874 17.4128 9.10423 17.2242 9.292C17.0356 9.47977 16.9296 9.73445 16.9296 10C16.9296 10.2656 17.0356 10.5202 17.2242 10.708L21.5368 15H9.90046Z" fill="white"/>
</svg>
