<svg width="33" height="32" viewBox="0 0 33 32" fill="none" xmlns="http://www.w3.org/2000/svg">
<path d="M16.0691 0C11.8072 0 7.71984 1.68571 4.70621 4.68629C1.69258 7.68687 -0.000457764 11.7565 -0.000457764 16C-0.000457764 20.2435 1.69258 24.3131 4.70621 27.3137C7.71984 30.3143 11.8072 32 16.0691 32C20.331 32 24.4184 30.3143 27.432 27.3137C30.4456 24.3131 32.1387 20.2435 32.1387 16C32.1387 11.7565 30.4456 7.68687 27.432 4.68629C24.4184 1.68571 20.331 0 16.0691 0V0ZM23.0995 15C23.3659 15 23.6214 15.1054 23.8097 15.2929C23.9981 15.4804 24.1039 15.7348 24.1039 16C24.1039 16.2652 23.9981 16.5196 23.8097 16.7071C23.6214 16.8946 23.3659 17 23.0995 17H11.4632L15.7758 21.292C15.9644 21.4798 16.0704 21.7344 16.0704 22C16.0704 22.2656 15.9644 22.5202 15.7758 22.708C15.5872 22.8958 15.3315 23.0013 15.0648 23.0013C14.7981 23.0013 14.5423 22.8958 14.3537 22.708L8.32759 16.708C8.23406 16.6151 8.15986 16.5048 8.10922 16.3833C8.05859 16.2618 8.03253 16.1315 8.03253 16C8.03253 15.8685 8.05859 15.7382 8.10922 15.6167C8.15986 15.4952 8.23406 15.3849 8.32759 15.292L14.3537 9.292C14.5423 9.10423 14.7981 8.99874 15.0648 8.99874C15.3315 8.99874 15.5872 9.10423 15.7758 9.292C15.9644 9.47977 16.0704 9.73445 16.0704 10C16.0704 10.2656 15.9644 10.5202 15.7758 10.708L11.4632 15H23.0995Z" fill="white"/>
</svg>
