<svg width="17" height="18" viewBox="0 0 17 18" fill="none" xmlns="http://www.w3.org/2000/svg">
<path fill-rule="evenodd" clip-rule="evenodd" d="M12.789 0.152814L9.46872 3.47314C9.26497 3.67689 9.26497 4.00723 9.46872 4.21099C9.67247 4.41474 10.0028 4.41474 10.2066 4.21099L12.6362 1.78133V17.4782H13.6797L13.6797 1.78133L16.1094 4.21099C16.3131 4.41474 16.6435 4.41474 16.8472 4.21099C17.051 4.00723 17.051 3.67689 16.8472 3.47314L13.5269 0.152814C13.3231 -0.0509381 12.9928 -0.0509381 12.789 0.152814ZM4.61919 17.8472L7.93951 14.5269C8.14326 14.3231 8.14326 13.9928 7.93951 13.789C7.73576 13.5853 7.40541 13.5853 7.20166 13.789L4.772 16.2187L4.772 0.521773H3.72853L3.72853 16.2187L1.29887 13.789C1.09511 13.5853 0.764768 13.5853 0.561017 13.789C0.357265 13.9928 0.357265 14.3231 0.561017 14.5269L3.88134 17.8472C4.08509 18.0509 4.41544 18.0509 4.61919 17.8472Z" fill="white"/>
</svg>
