<svg width="36" height="35" viewBox="0 0 36 35" fill="none" xmlns="http://www.w3.org/2000/svg">
<path d="M17.9993 34.5846C15.6362 34.5846 13.4153 34.1362 11.3368 33.2393C9.25838 32.3424 7.45039 31.1253 5.91289 29.5878C4.37539 28.0503 3.1582 26.2423 2.26133 24.1638C1.36445 22.0853 0.916016 19.8645 0.916016 17.5013C0.916016 15.1381 1.36445 12.9173 2.26133 10.8388C3.1582 8.76033 4.37539 6.95234 5.91289 5.41484C7.45039 3.87734 9.25838 2.66016 11.3368 1.76328C13.4153 0.866406 15.6362 0.417969 17.9993 0.417969C19.85 0.417969 21.6011 0.688455 23.2525 1.22943C24.9039 1.7704 26.4271 2.52491 27.8223 3.49297L25.3452 6.01276C24.2632 5.32943 23.1101 4.79557 21.8858 4.4112C20.6615 4.02682 19.366 3.83464 17.9993 3.83464C14.2125 3.83464 10.9881 5.16571 8.32591 7.82786C5.66376 10.49 4.33268 13.7145 4.33268 17.5013C4.33268 21.2881 5.66376 24.5126 8.32591 27.1747C10.9881 29.8369 14.2125 31.168 17.9993 31.168C21.7862 31.168 25.0106 29.8369 27.6728 27.1747C30.3349 24.5126 31.666 21.2881 31.666 17.5013C31.666 16.9888 31.6375 16.4763 31.5806 15.9638C31.5237 15.4513 31.4382 14.953 31.3243 14.469L34.1004 11.693C34.4136 12.6041 34.6556 13.5437 34.8264 14.5117C34.9973 15.4798 35.0827 16.4763 35.0827 17.5013C35.0827 19.8645 34.6342 22.0853 33.7374 24.1638C32.8405 26.2423 31.6233 28.0503 30.0858 29.5878C28.5483 31.1253 26.7403 32.3424 24.6618 33.2393C22.5834 34.1362 20.3625 34.5846 17.9993 34.5846ZM15.6077 25.3596L8.34727 18.0992L10.7389 15.7076L15.6077 20.5763L32.691 3.45026L35.0827 5.84193L15.6077 25.3596Z" fill="#30A62E"/>
</svg>
